<svg xmlns="http://www.w3.org/2000/svg" width="1100" height="760" viewBox="0 0 1100 760" role="img" aria-labelledby="title desc">
  <title id="title">OCPPbasedCSO main dashboard and RFID users panel</title>
  <desc id="desc">Main Charging Station Operator screen with CSMS connection, charging station table, and RFID user management panel.</desc>
  <rect width="1100" height="760" fill="#f8fafc"/>
  <rect x="50" y="44" width="1000" height="672" rx="8" fill="#ffffff" stroke="#cbd5e1" stroke-width="2"/>
  <line x1="780" y1="44" x2="780" y2="716" stroke="#cbd5e1" stroke-width="2"/>

  <text x="185" y="105" font-family="Arial, sans-serif" font-size="30" font-weight="700" fill="#0f172a">CHARGING STATION OPERATOR</text>
  <text x="72" y="164" font-family="Arial, sans-serif" font-size="16" fill="#334155">CSMS SERVER SITE</text>
  <rect x="220" y="140" width="468" height="34" rx="3" fill="#ffffff" stroke="#94a3b8"/>
  <text x="235" y="162" font-family="Arial, sans-serif" font-size="14" fill="#64748b">ws://localhost:8080/CSMSWebsocketServer-1/CSO</text>
  <rect x="708" y="140" width="78" height="34" rx="4" fill="#e2e8f0" stroke="#94a3b8"/>
  <text x="727" y="162" font-family="Arial, sans-serif" font-size="14" fill="#0f172a">Connect</text>
  <text x="130" y="210" font-family="Arial, sans-serif" font-size="15" fill="#64748b">Connected to Session 4</text>
  <rect x="655" y="228" width="95" height="34" rx="4" fill="#e2e8f0" stroke="#94a3b8"/>
  <text x="680" y="250" font-family="Arial, sans-serif" font-size="14" fill="#0f172a">Refresh</text>

  <text x="92" y="286" font-family="Arial, sans-serif" font-size="16" fill="#334155">Currently Connected Charging Stations to CSMS :</text>
  <text x="442" y="286" font-family="Arial, sans-serif" font-size="16" font-weight="700" fill="#0f172a">1</text>
  <rect x="82" y="315" width="650" height="252" rx="4" fill="#ffffff" stroke="#94a3b8"/>
  <rect x="82" y="315" width="650" height="38" rx="4" fill="#e2e8f0"/>
  <line x1="228" y1="315" x2="228" y2="567" stroke="#cbd5e1"/>
  <line x1="356" y1="315" x2="356" y2="567" stroke="#cbd5e1"/>
  <line x1="496" y1="315" x2="496" y2="567" stroke="#cbd5e1"/>
  <line x1="606" y1="315" x2="606" y2="567" stroke="#cbd5e1"/>
  <text x="97" y="339" font-family="Arial, sans-serif" font-size="14" font-weight="700" fill="#334155">Charging Station</text>
  <text x="244" y="339" font-family="Arial, sans-serif" font-size="14" font-weight="700" fill="#334155">Location</text>
  <text x="372" y="339" font-family="Arial, sans-serif" font-size="14" font-weight="700" fill="#334155">Operational</text>
  <text x="512" y="339" font-family="Arial, sans-serif" font-size="14" font-weight="700" fill="#334155">User</text>
  <text x="622" y="339" font-family="Arial, sans-serif" font-size="14" font-weight="700" fill="#334155">Transaction</text>
  <line x1="82" y1="353" x2="732" y2="353" stroke="#cbd5e1"/>
  <text x="98" y="386" font-family="Arial, sans-serif" font-size="14" fill="#0f172a">CS01</text>
  <text x="244" y="386" font-family="Arial, sans-serif" font-size="14" fill="#475569">Bay A</text>
  <text x="372" y="386" font-family="Arial, sans-serif" font-size="14" fill="#16803c">Operative</text>
  <text x="512" y="386" font-family="Arial, sans-serif" font-size="14" fill="#475569">Demo Driver</text>
  <text x="622" y="386" font-family="Arial, sans-serif" font-size="14" fill="#475569">TX-1007</text>
  <rect x="640" y="596" width="118" height="34" rx="4" fill="#e2e8f0" stroke="#94a3b8"/>
  <text x="669" y="618" font-family="Arial, sans-serif" font-size="14" fill="#0f172a">Configure</text>

  <text x="815" y="92" font-family="Arial, sans-serif" font-size="24" font-weight="700" fill="#0f172a">RFID Users</text>
  <rect x="810" y="122" width="210" height="34" rx="3" fill="#ffffff" stroke="#94a3b8"/>
  <text x="824" y="144" font-family="Arial, sans-serif" font-size="14" fill="#94a3b8">RFID UID or PIN</text>
  <rect x="810" y="166" width="210" height="34" rx="3" fill="#ffffff" stroke="#94a3b8"/>
  <text x="824" y="188" font-family="Arial, sans-serif" font-size="14" fill="#94a3b8">Driver name</text>
  <rect x="810" y="210" width="98" height="34" rx="3" fill="#ffffff" stroke="#94a3b8"/>
  <text x="824" y="232" font-family="Arial, sans-serif" font-size="14" fill="#334155">ISO14443</text>
  <rect x="922" y="210" width="98" height="34" rx="3" fill="#ffffff" stroke="#94a3b8"/>
  <text x="936" y="232" font-family="Arial, sans-serif" font-size="14" fill="#16803c">Accepted</text>
  <rect x="810" y="260" width="94" height="34" rx="4" fill="#117a65"/>
  <text x="842" y="282" font-family="Arial, sans-serif" font-size="14" fill="#ffffff">Save</text>
  <rect x="926" y="260" width="94" height="34" rx="4" fill="#334155"/>
  <text x="957" y="282" font-family="Arial, sans-serif" font-size="14" fill="#ffffff">Delete</text>
  <rect x="810" y="313" width="210" height="34" rx="4" fill="#e2e8f0" stroke="#94a3b8"/>
  <text x="854" y="335" font-family="Arial, sans-serif" font-size="14" fill="#0f172a">Refresh From CSMS</text>
  <rect x="810" y="385" width="210" height="286" rx="4" fill="#ffffff" stroke="#94a3b8"/>
  <rect x="810" y="385" width="210" height="36" rx="4" fill="#e2e8f0"/>
  <line x1="890" y1="385" x2="890" y2="671" stroke="#cbd5e1"/>
  <line x1="960" y1="385" x2="960" y2="671" stroke="#cbd5e1"/>
  <text x="824" y="408" font-family="Arial, sans-serif" font-size="13" font-weight="700" fill="#334155">Token</text>
  <text x="904" y="408" font-family="Arial, sans-serif" font-size="13" font-weight="700" fill="#334155">User</text>
  <text x="972" y="408" font-family="Arial, sans-serif" font-size="13" font-weight="700" fill="#334155">Status</text>
  <text x="824" y="448" font-family="Arial, sans-serif" font-size="13" fill="#0f172a">04AABBCC</text>
  <text x="904" y="448" font-family="Arial, sans-serif" font-size="13" fill="#475569">Demo</text>
  <text x="972" y="448" font-family="Arial, sans-serif" font-size="13" fill="#16803c">Accepted</text>
  <text x="824" y="484" font-family="Arial, sans-serif" font-size="13" fill="#0f172a">1234</text>
  <text x="904" y="484" font-family="Arial, sans-serif" font-size="13" fill="#475569">PIN</text>
  <text x="972" y="484" font-family="Arial, sans-serif" font-size="13" fill="#16803c">Accepted</text>
  <text x="812" y="704" font-family="Arial, sans-serif" font-size="14" fill="#64748b">Loaded 2 RFID users.</text>
</svg>
