<svg xmlns="http://www.w3.org/2000/svg" width="1100" height="760" viewBox="0 0 1100 760" role="img" aria-labelledby="title desc">
  <title id="title">OCPPbasedCSO configure charging station screen</title>
  <desc id="desc">Configure Charging Station page with station property panel, OCPP configuration actions, base report selector, and display message actions.</desc>
  <rect width="1100" height="760" fill="#f8fafc"/>
  <rect x="50" y="44" width="1000" height="672" rx="8" fill="#ffffff" stroke="#cbd5e1" stroke-width="2"/>
  <text x="210" y="110" font-family="Arial, sans-serif" font-size="34" font-weight="700" fill="#0f172a">Configure Charging Station</text>
  <rect x="85" y="82" width="82" height="34" rx="4" fill="#e2e8f0" stroke="#94a3b8"/>
  <text x="112" y="104" font-family="Arial, sans-serif" font-size="14" fill="#0f172a">Back</text>

  <rect x="96" y="170" width="440" height="282" rx="8" fill="#ecfeff" stroke="#0891b2" stroke-width="2"/>
  <text x="215" y="207" font-family="Arial, sans-serif" font-size="18" font-weight="700" fill="#0f172a">Charging Station Property</text>
  <text x="145" y="265" font-family="Arial, sans-serif" font-size="16" fill="#334155">Name :</text>
  <text x="330" y="265" font-family="Arial, sans-serif" font-size="16" fill="#64748b">CS01</text>
  <text x="145" y="310" font-family="Arial, sans-serif" font-size="16" fill="#334155">Location :</text>
  <text x="330" y="310" font-family="Arial, sans-serif" font-size="16" fill="#64748b">Bay A</text>
  <text x="145" y="355" font-family="Arial, sans-serif" font-size="16" fill="#334155">Operational status :</text>
  <text x="330" y="355" font-family="Arial, sans-serif" font-size="16" fill="#16803c">Operative</text>
  <text x="145" y="400" font-family="Arial, sans-serif" font-size="16" fill="#334155">User :</text>
  <text x="330" y="400" font-family="Arial, sans-serif" font-size="16" fill="#64748b">Demo Driver</text>

  <text x="608" y="185" font-family="Arial, sans-serif" font-size="18" font-weight="700" fill="#0f172a">Charging Station Commands</text>
  <rect x="610" y="218" width="160" height="42" rx="4" fill="#334155"/>
  <text x="674" y="245" font-family="Arial, sans-serif" font-size="15" fill="#ffffff">Reset</text>
  <rect x="610" y="292" width="160" height="42" rx="4" fill="#117a65"/>
  <text x="648" y="319" font-family="Arial, sans-serif" font-size="15" fill="#ffffff">Set Variables</text>
  <rect x="610" y="366" width="160" height="42" rx="4" fill="#e2e8f0" stroke="#94a3b8"/>
  <text x="648" y="393" font-family="Arial, sans-serif" font-size="15" fill="#0f172a">Get Variables</text>
  <rect x="610" y="440" width="190" height="42" rx="4" fill="#e2e8f0" stroke="#94a3b8"/>
  <text x="642" y="467" font-family="Arial, sans-serif" font-size="15" fill="#0f172a">Set Display Message</text>
  <rect x="610" y="510" width="190" height="42" rx="4" fill="#e2e8f0" stroke="#94a3b8"/>
  <text x="642" y="537" font-family="Arial, sans-serif" font-size="15" fill="#0f172a">Get Display Message</text>

  <text x="95" y="532" font-family="Arial, sans-serif" font-size="18" font-weight="700" fill="#0f172a">Get Base Report</text>
  <rect x="95" y="560" width="210" height="38" rx="3" fill="#ffffff" stroke="#94a3b8"/>
  <text x="112" y="584" font-family="Arial, sans-serif" font-size="14" fill="#334155">ConfigurationInventory</text>
  <rect x="340" y="560" width="160" height="38" rx="4" fill="#e2e8f0" stroke="#94a3b8"/>
  <text x="370" y="584" font-family="Arial, sans-serif" font-size="14" fill="#0f172a">Get Base Report</text>
  <text x="95" y="634" font-family="Arial, sans-serif" font-size="15" fill="#64748b">Lists Components and Variables that can be set by the operator.</text>
</svg>
